<svg width="74" height="74" viewBox="0 0 74 74" fill="none" xmlns="http://www.w3.org/2000/svg">
<path d="M37 30.216V61.666M37 30.216C37 24.9617 37.331 19.1672 31.9488 16.4248C29.9701 15.4166 27.3793 15.4166 22.1988 15.4166H14.1821C10.3722 15.4166 9.25001 16.7628 9.25001 20.3503V47.4836C9.25001 49.234 9.13971 51.1671 10.9332 52.0809C11.5921 52.4166 12.4536 52.4166 14.1771 52.4166H22.9114C30.2408 52.4166 32.963 55.6119 37 61.666M37 30.216C37 24.9629 36.668 19.1669 42.0496 16.4248C44.0283 15.4166 46.6189 15.4166 51.7994 15.4166H59.8161C63.6252 15.4166 64.75 16.7623 64.75 20.3503V47.4836C64.75 49.2316 64.859 51.1681 63.0675 52.0809C62.4086 52.4166 61.5464 52.4166 59.8229 52.4166H51.0888C43.758 52.4166 41.0373 55.6099 37 61.666" stroke="#1D1D1B" stroke-width="3.6875" stroke-linecap="round" stroke-linejoin="round"/>
</svg>
