<svg width="429" height="557" viewBox="0 0 429 557" fill="none" xmlns="http://www.w3.org/2000/svg">
<mask id="path-1-outside-1_156_140" maskUnits="userSpaceOnUse" x="-0.987436" y="-0.987372" width="430.348" height="558.452" fill="black">
<rect fill="white" x="-0.987436" y="-0.987372" width="430.348" height="558.452"/>
<path d="M427.986 539.364C427.986 548.426 420.639 555.773 411.577 555.773C402.514 555.773 395.167 548.426 395.167 539.364V498.979C395.167 484.976 383.816 473.624 369.813 473.624H56.4302C42.4273 473.624 31.0756 484.976 31.0756 498.979V540.742C31.0756 549.043 24.3461 555.773 16.0449 555.773C7.74367 555.773 1.01418 549.043 1.01418 540.742V26.3689C1.01418 12.3659 12.3658 1.01425 26.3688 1.01425H402.631C416.634 1.01425 427.986 12.3659 427.986 26.3689V539.364Z"/>
</mask>
<path d="M427.986 539.364C427.986 548.426 420.639 555.773 411.577 555.773C402.514 555.773 395.167 548.426 395.167 539.364V498.979C395.167 484.976 383.816 473.624 369.813 473.624H56.4302C42.4273 473.624 31.0756 484.976 31.0756 498.979V540.742C31.0756 549.043 24.3461 555.773 16.0449 555.773C7.74367 555.773 1.01418 549.043 1.01418 540.742V26.3689C1.01418 12.3659 12.3658 1.01425 26.3688 1.01425H402.631C416.634 1.01425 427.986 12.3659 427.986 26.3689V539.364Z" fill="white"/>
<path d="M395.167 539.364H396.181V498.979H395.167H394.153V539.364H395.167ZM369.813 473.624V472.61H56.4302V473.624V474.639H369.813V473.624ZM31.0756 498.979H30.0614V540.742H31.0756H32.0898V498.979H31.0756ZM1.01418 540.742H2.02837V26.3689H1.01418H-4.77223e-07V540.742H1.01418ZM26.3688 1.01425V2.02843H402.631V1.01425V6.44252e-05H26.3688V1.01425ZM427.986 26.3689H426.972V539.364H427.986H429V26.3689H427.986ZM402.631 1.01425V2.02843C416.074 2.02843 426.972 12.926 426.972 26.3689H427.986H429C429 11.8058 417.194 6.44252e-05 402.631 6.44252e-05V1.01425ZM1.01418 26.3689H2.02837C2.02837 12.9261 12.926 2.02843 26.3688 2.02843V1.01425V6.44252e-05C11.8057 6.44252e-05 -4.77223e-07 11.8058 -4.77223e-07 26.3689H1.01418ZM16.0449 555.773V554.759C8.30379 554.759 2.02837 548.483 2.02837 540.742H1.01418H-4.77223e-07C-4.77223e-07 549.604 7.18355 556.787 16.0449 556.787V555.773ZM31.0756 540.742H30.0614C30.0614 548.483 23.786 554.759 16.0449 554.759V555.773V556.787C24.9063 556.787 32.0898 549.604 32.0898 540.742H31.0756ZM56.4302 473.624V472.61C41.8671 472.61 30.0614 484.416 30.0614 498.979H31.0756H32.0898C32.0898 485.536 42.9874 474.639 56.4302 474.639V473.624ZM395.167 498.979H396.181C396.181 484.416 384.376 472.61 369.813 472.61V473.624V474.639C383.255 474.639 394.153 485.536 394.153 498.979H395.167ZM411.577 555.773V554.759C403.074 554.759 396.181 547.866 396.181 539.364H395.167H394.153C394.153 548.986 401.954 556.787 411.577 556.787V555.773ZM411.577 555.773V556.787C421.199 556.787 429 548.986 429 539.364H427.986H426.972C426.972 547.866 420.079 554.759 411.577 554.759V555.773Z" fill="#DDDDDD" mask="url(#path-1-outside-1_156_140)"/>
</svg>
