<svg width="39" height="32" viewBox="0 0 39 32" fill="none" xmlns="http://www.w3.org/2000/svg">
<rect x="0.000289915" width="6.15785" height="31.8156" rx="3.07895" fill="black"/>
<path d="M13.8555 0.0316312C16.9729 0.0316312 19.5001 2.55885 19.5001 5.67633C19.5001 8.7938 16.9729 11.321 13.8555 11.321H7.85378C3.51642 11.321 0.000289915 7.80489 0.000289915 3.46753C0.000289915 1.56994 1.5386 0.0316312 3.43619 0.0316312H13.8555Z" fill="black"/>
<rect x="29.1198" y="13.3736" width="4.76207" height="29.1198" rx="2.38105" transform="rotate(90 29.1198 13.3736)" fill="black"/>
<path d="M33.3553 20.5894C36.4728 20.5894 39 23.1166 39 26.2341C39 29.3515 36.4728 31.8788 33.3553 31.8788H2.82264C1.2639 31.8788 0.000289915 30.6152 0.000289915 29.0564C0.000289915 24.3802 3.79111 20.5894 8.46733 20.5894H33.3553Z" fill="black"/>
</svg>
